Coordinates
version=1
nRows=7
nColumns=63
inDegrees=yes

Units are S.I. units (second, meters, Newtons, ...)
If the header above contains a line with 'inDegrees', this indicates whether rotational values are in degrees (yes) or radians (no).

endheader
time	pelvis_tilt	pelvis_list	pelvis_rotation	pelvis_tx	pelvis_ty	pelvis_tz	hip_flexion_r	hip_adduction_r	hip_rotation_r	knee_angle_r	knee_angle_r_beta	ankle_angle_r	subtalar_angle_r	mtp_angle_r	hip_flexion_l	hip_adduction_l	hip_rotation_l	knee_angle_l	knee_angle_l_beta	ankle_angle_l	subtalar_angle_l	mtp_angle_l	L5_S1_Flex_Ext	L5_S1_Lat_Bending	L5_S1_axial_rotation	L4_L5_Flex_Ext	L4_L5_Lat_Bending	L4_L5_axial_rotation	L3_L4_Flex_Ext	L3_L4_Lat_Bending	L3_L4_axial_rotation	L2_L3_Flex_Ext	L2_L3_Lat_Bending	L2_L3_axial_rotation	L1_L2_Flex_Ext	L1_L2_Lat_Bending	L1_L2_axial_rotation	L1_T12_Flex_Ext	L1_T12_Lat_Bending	L1_T12_axial_rotation	Abs_r3	Abs_r2	Abs_r1	Abs_t1	Abs_t2	neck_flexion	neck_bending	neck_rotation	arm_flex_r	arm_add_r	arm_rot_r	elbow_flex_r	pro_sup_r	wrist_flex_r	wrist_dev_r	arm_flex_l	arm_add_l	arm_rot_l	elbow_flex_l	pro_sup_l	wrist_flex_l	wrist_dev_l
      3.65000000	     -2.48334129	     -3.52989080	     95.58595549	      0.24983721	      0.82026194	      0.50329546	      3.67434907	     -2.73707372	    -16.30097133	     16.70688004	      0.29159006	     30.77872890	      3.45458883	      0.00000000	      3.27230528	     -0.30474931	    -12.69097177	     16.52860257	      0.28847854	     26.38225399	    -10.09053307	      0.00000000	     -0.04921929	     -0.06147142	     -0.36838306	     -0.09140514	     -0.08175699	     -0.39140700	     -0.08086237	     -0.14946161	     -0.39140700	     -0.05625273	     -0.14946161	     -0.32233517	     -0.04570503	     -0.12535252	     -0.29931123	     -0.02812390	     -0.09521923	     -0.27628729	     -0.35156846	     -0.69537699	     -2.04883605	      0.00000000	      0.00000000	      3.57189532	      3.35548629	     -1.46014820	      4.77101543	    -19.25830379	     25.69263910	    122.66904398	     87.18312314	    -10.92874441	      4.73794277	    -21.33928006	    -17.45182745	      4.42598912	    112.24816426	     81.72229234	    -11.51794356	     -0.18972101
      3.66666667	     -2.35127832	     -3.33400951	     95.43303240	      0.24691747	      0.81946251	      0.50148500	      3.66331379	     -2.64451101	    -15.23276162	     17.23086319	      0.30073530	     30.84451322	      1.52141413	      0.00000000	      2.71041782	     -0.24895719	    -12.27020161	     16.27214914	      0.28400258	     26.96938618	    -10.00170668	      0.00000000	     -0.06005186	     -0.03572795	     -0.31752139	     -0.11152231	     -0.04751817	     -0.33736648	     -0.09865920	     -0.08686893	     -0.33736648	     -0.06863327	     -0.08686893	     -0.27783121	     -0.05576416	     -0.07285643	     -0.25798613	     -0.03431363	     -0.05534259	     -0.23814104	     -0.42894443	     -0.40416170	     -1.76595871	      0.00000000	      0.00000000	      4.20885055	      2.96665650	     -1.70613747	      0.75142969	    -19.03082285	     25.24699037	    117.56996535	     86.87818137	     -6.01322798	      6.26663889	    -16.82318008	    -16.65575705	      7.53111586	    106.40261477	     83.28478116	    -12.57935671	      0.47722221
      3.68333333	     -2.16063037	     -3.20790218	     95.28814741	      0.24379966	      0.81865659	      0.49940659	      3.66903980	     -2.49887242	    -14.17383796	     17.65535113	      0.30814401	     30.85517638	     -0.20062839	      0.00000000	      2.37593166	     -0.27822877	    -11.98568295	     16.32947918	      0.28500318	     27.60753048	     -9.73885919	      0.00000000	     -0.06188491	     -0.00278733	     -0.28950817	     -0.11492646	     -0.00370715	     -0.30760243	     -0.10167071	     -0.00677712	     -0.30760243	     -0.07072826	     -0.00677712	     -0.25331965	     -0.05746632	     -0.00568393	     -0.23522539	     -0.03536104	     -0.00431758	     -0.21713113	     -0.44203770	     -0.03153087	     -1.61015759	      0.00000000	      0.00000000	      4.76523079	      2.37552716	     -2.00521811	     -2.59771583	    -18.86799479	     24.90638452	    111.76149716	     85.98940468	     -1.14798219	      7.30702787	    -12.96160685	    -15.91011939	     10.59902591	    101.77879475	     84.53392371	    -12.61673653	      2.05792840
      3.70000000	     -2.03233939	     -3.16069930	     95.22758164	      0.24039236	      0.81794832	      0.49716544	      3.76173083	     -2.57265251	    -13.80181221	     18.18567024	      0.31739982	     31.11749259	     -0.58272784	      0.00000000	      2.25456298	     -0.25576168	    -11.64805464	     16.64592635	      0.29052622	     27.98578365	     -9.44470183	      0.00000000	     -0.05071559	      0.02898075	     -0.33515473	     -0.09418393	      0.03854440	     -0.35610190	     -0.08332065	      0.07046380	     -0.35610190	     -0.05796285	      0.07046380	     -0.29326038	     -0.04709450	      0.05909755	     -0.27231321	     -0.02897889	      0.04489118	     -0.25136604	     -0.36225641	      0.32783605	     -1.86403004	      0.00000000	      0.00000000	      4.98049009	      1.63912116	     -1.66896892	     -4.66377978	    -19.25688054	     26.00785813	    105.72094388	     85.34841219	      0.37572038	      8.30271430	     -9.89182898	    -15.47644216	     13.63101004	     98.80434161	     84.99549484	    -11.81641958	      3.59298034
      3.71666667	     -1.59510849	     -3.20796046	     95.07725530	      0.23682193	      0.81708709	      0.49466091	      3.88812700	     -2.17726365	    -12.56457303	     18.33381958	      0.31998552	     31.07286510	     -1.98726948	      0.00000000	      2.38941788	     -0.61218569	    -11.81076836	     17.27588605	      0.30152109	     28.64067149	     -8.93869051	      0.00000000	     -0.02474899	      0.09012005	     -0.18504361	     -0.04596135	      0.11985967	     -0.19660884	     -0.04066011	      0.21911790	     -0.19660884	     -0.02828562	      0.21911790	     -0.16191316	     -0.02298191	      0.18377281	     -0.15034793	     -0.01414157	      0.13959596	     -0.13878271	     -0.17677955	      1.01945607	     -1.02915705	      0.00000000	      0.00000000	      5.59674823	      0.35893534	     -3.37922807	     -7.34963163	    -19.19860321	     24.30598944	     99.80092704	     83.15995460	      6.78847671	      9.66228028	     -6.84234683	    -14.98520490	     17.24851015	     97.78005038	     84.96680791	    -10.02565875	      6.98819115
      3.73333333	     -1.43105553	     -3.24621165	     95.00481595	      0.23341289	      0.81635357	      0.49236347	      4.07765816	     -2.16524769	    -11.85466051	     18.68993100	      0.32620083	     31.35338491	     -2.46329575	      0.00000000	      2.59940836	     -0.71765784	    -12.01969495	     18.03492614	      0.31476884	     28.88377536	     -8.55807448	      0.00000000	     -0.00300721	      0.12469609	     -0.09697623	     -0.00558469	      0.16584580	     -0.10303725	     -0.00494055	      0.30318607	     -0.10303725	     -0.00343694	      0.30318607	     -0.08485420	     -0.00279250	      0.25428027	     -0.07879319	     -0.00171832	      0.19315424	     -0.07273217	     -0.02148020	      1.41058710	     -0.53935271	      0.00000000	      0.00000000	      6.30005442	     -0.85092577	     -3.96315381	     -8.96082823	    -19.53824966	     23.94992774	     94.69281889	     83.34608216	      8.16074975	     11.00237037	     -4.60138464	    -14.66800750	     20.20836789	     98.70963506	     84.40266155	     -8.09972116	      9.47541678
      3.75000000	     -1.30762281	     -3.29977524	     94.82461504	      0.23033612	      0.81570226	      0.48992757	      4.26105159	     -2.20686571	    -11.32493051	     19.00356238	      0.33167473	     31.66565379	     -2.52598932	      0.00000000	      2.86706953	     -0.80390963	    -12.39046791	     18.87214283	      0.32938103	     28.99046774	     -8.38291761	      0.00000000	      0.02917521	      0.15228157	      0.01459005	      0.05418129	      0.20253449	      0.01550193	      0.04793196	      0.37025742	      0.01550193	      0.03334435	      0.37025742	      0.01276629	      0.02709210	      0.31053258	      0.01185442	      0.01667072	      0.23588416	      0.01094254	      0.20839562	      1.72263960	      0.08114549	      0.00000000	      0.00000000	      7.14499549	     -1.96062595	     -4.53398400	    -10.46833836	    -20.00283351	     23.40512691	     90.73493818	     85.28021982	      7.87557886	     11.46997530	     -2.93744422	    -14.18287185	     22.28739986	    101.38263800	     83.33942455	     -6.25998194	     12.25860094
